PathFileType	4	(X/Y/Z)	OpenSim_Sub08_CSBaseline_Gyro.trc
DataRate	CameraRate	NumFrames	NumMarkers	Units	OrigDataRate	OrigDataStartFrame	OrigNumFrames
100	100	13	8	m	100	2731	5461
Frame#	Time	torso_imu_offset_imu	pelvis_imu_offset_imu	tibia_r_imu_offset_imu	femur_r_imu_offset_imu	tibia_l_imu_offset_imu	femur_l_imu_offset_imu	toes_r_imu_offset_imu	toes_l_imu_offset_imu
				X1	Y1	Z1	X2	Y2	Z2	X3	Y3	Z3	X4	Y4	Z4	X5	Y5	Z5	X6	Y6	Z6	X7	Y7	Z7	X8		Y8	Z8	

2731	27.30000000	-0.17923000	0.11506400	0.11338600	-0.11290700	0.06800100	-0.09961700	-0.65963500	-0.13394700	-1.16451700	-0.15955400	0.14971600	-0.58321400	-3.04273800	0.19158100	-0.97743700	-0.59603200	-0.49699900	0.20837200	-0.13390900	-0.72242800	-0.08584000	-2.18929500	0.25398900	-2.92719600
2732	27.31000000	-0.17529700	0.13976600	0.11099700	-0.04873900	0.04465700	-0.05844200	-0.68085100	-0.12160900	-1.21005200	-0.04703000	0.15829800	-0.58809000	-3.04044000	0.02630100	-0.41669900	-0.37626100	-0.56680200	0.06293400	-0.10944600	-0.86767300	-0.08969800	-1.61112800	-0.21318600	-2.59633300
2733	27.32000000	-0.16899800	0.15540900	0.11311900	0.00503600	-0.01597000	-0.00893700	-0.68557300	-0.13138400	-1.26114700	0.03874600	0.14998700	-0.57686700	-2.74295000	-0.12651800	0.19854900	-0.21226900	-0.52743400	-0.04726500	-0.12707500	-1.01541400	-0.06432700	-1.01718800	-0.67065000	-2.21815600
2734	27.33000000	-0.17532900	0.17827000	0.12992100	0.04411800	-0.09500300	0.01626900	-0.80341800	-0.11513700	-1.32757100	0.07753500	0.16239500	-0.56902100	-2.35041900	-0.29094300	0.75622300	-0.07066200	-0.44116500	-0.16391300	-0.10977300	-1.16310500	-0.07075600	-0.59875100	-1.07022800	-1.80475500
2735	27.34000000	-0.19041200	0.21129000	0.14154900	0.07186500	-0.18186700	0.03199600	-0.83585300	-0.11264500	-1.42660300	0.06139900	0.17414100	-0.55632100	-1.77896600	-0.46099700	1.20675500	-0.00739100	-0.41183100	-0.28240300	-0.09121600	-1.31645400	-0.11739000	-0.43046500	-1.35932100	-1.36829300
2736	27.35000000	-0.21234000	0.25838100	0.16098700	0.07259400	-0.25409800	0.02109800	-0.87398600	-0.10723400	-1.49884200	0.01402500	0.19649600	-0.54913100	-1.14534200	-0.58058900	1.60636300	-0.00402300	-0.46965200	-0.34646800	-0.08241100	-1.51078400	-0.18751400	-0.23047500	-1.43723100	-0.84917300
2737	27.36000000	-0.24569100	0.32073000	0.18547100	0.05168200	-0.29179700	0.00861800	-0.97765000	-0.11952000	-1.55964500	-0.06930700	0.23293700	-0.54546400	-0.60298800	-0.71804500	1.90387600	-0.07371600	-0.60389800	-0.30204600	-0.09578200	-1.68830200	-0.26105200	0.13250300	-2.09906600	0.11723800
2738	27.37000000	-0.29417800	0.38614600	0.20927200	-0.00847100	-0.27325500	-0.02345100	-1.07987100	-0.13719100	-1.64037700	-0.18068800	0.27824100	-0.52690300	-0.05667900	-0.97093500	1.85805400	-0.17353600	-0.77442500	-0.17570200	-0.18764500	-1.90294000	-0.33034400	-1.61126700	-1.64463100	0.66193700
2739	27.38000000	-0.34633100	0.45283200	0.21815500	-0.06753200	-0.23406800	-0.05420200	-1.19861900	-0.14840000	-1.71496600	-0.27615600	0.33006600	-0.48123000	0.85767300	-1.13708900	1.17962000	-0.27327000	-0.95118600	0.05435200	-0.16424100	-2.15337500	-0.47970400	-1.86864000	-2.04147700	0.39844600
2740	27.39000000	-0.40326800	0.51562600	0.20590100	-0.12158000	-0.23546600	-0.09126900	-1.33772200	-0.16444300	-1.76476300	-0.35235300	0.37621400	-0.40366300	1.57320900	-1.07049400	0.40507100	-0.27956300	-1.04338900	0.37386200	-0.07846600	-2.42489700	-0.65709900	1.01352700	-2.73753900	0.24774500
2741	27.40000000	-0.44854400	0.59040500	0.17252800	-0.18594700	-0.28984500	-0.14810500	-1.41998800	-0.19933000	-1.82916600	-0.42617800	0.40409800	-0.29560100	1.15316700	-0.82510000	0.31195200	-0.12825700	-0.98228800	0.70708600	-0.01166100	-2.73092200	-0.81884900	-0.58005900	-3.23680900	0.62650500
2742	27.41000000	-0.47865600	0.67557600	0.14070100	-0.20300700	-0.31052400	-0.21621900	-1.55202200	-0.25306200	-1.94113700	-0.50144200	0.42999200	-0.17095900	-0.68024600	-0.72269300	0.68547900	0.02481200	-0.86637300	1.04485100	0.14449200	-3.17469100	-0.92130400	0.73747300	-2.93655300	0.17702000
2743	27.42000000	-0.50030500	0.74085700	0.11606600	-0.17946300	-0.21989900	-0.26201100	-1.71643100	-0.29078600	-2.09748900	-0.55103800	0.47125700	-0.03691400	-1.82047900	-0.98548800	0.89042200	-0.06584900	-0.62459900	1.16171500	0.39002200	-3.62926800	-0.96016900	1.37754500	-2.56794600	0.03326000
